<?xml version="1.0" encoding="UTF-8" standalone="no"?>
<svg
   xmlns:dc="http://purl.org/dc/elements/1.1/"
   xmlns:cc="http://creativecommons.org/ns#"
   xmlns:rdf="http://www.w3.org/1999/02/22-rdf-syntax-ns#"
   xmlns:svg="http://www.w3.org/2000/svg"
   xmlns="http://www.w3.org/2000/svg"
   xmlns:sodipodi="http://sodipodi.sourceforge.net/DTD/sodipodi-0.dtd"
   xmlns:inkscape="http://www.inkscape.org/namespaces/inkscape"
   version="1.1"
   id="svg10"
   width="1000"
   height="230"
   viewBox="0 0 1000 230"
   sodipodi:docname="banniere.svg"
   inkscape:version="1.0.2-2 (e86c870879, 2021-01-15)"
   inkscape:export-filename="C:\Users\thiba\OneDrive\Bureau\CRIS_banniere_V2.png"
   inkscape:export-xdpi="150"
   inkscape:export-ydpi="150">
  <metadata
     id="metadata16">
    <rdf:RDF>
      <cc:Work
         rdf:about="">
        <dc:format>image/svg+xml</dc:format>
        <dc:type
           rdf:resource="http://purl.org/dc/dcmitype/StillImage" />
        <dc:title />
      </cc:Work>
    </rdf:RDF>
  </metadata>
  <defs
     id="defs14">
    <filter
       inkscape:collect="always"
       style="color-interpolation-filters:sRGB"
       id="filter2379"
       x="-8.5516217e-07"
       width="1.0000017"
       y="-2.0108673e-06"
       height="1.0000041">
      <feGaussianBlur
         inkscape:collect="always"
         stdDeviation="0.0019743935"
         id="feGaussianBlur2381" />
    </filter>
    <filter
       inkscape:collect="always"
       style="color-interpolation-filters:sRGB"
       id="filter2379-0"
       x="-8.5516217e-07"
       width="1.0000017"
       y="-2.0108673e-06"
       height="1.0000041">
      <feGaussianBlur
         inkscape:collect="always"
         stdDeviation="0.0019743935"
         id="feGaussianBlur2381-1" />
    </filter>
    <filter
       inkscape:collect="always"
       style="color-interpolation-filters:sRGB"
       id="filter2379-8"
       x="-8.5516217e-07"
       width="1.0000017"
       y="-2.0108673e-06"
       height="1.0000041">
      <feGaussianBlur
         inkscape:collect="always"
         stdDeviation="0.0019743935"
         id="feGaussianBlur2381-5" />
    </filter>
    <filter
       inkscape:collect="always"
       style="color-interpolation-filters:sRGB"
       id="filter2379-8-2"
       x="-8.5516217e-07"
       width="1.0000017"
       y="-2.0108673e-06"
       height="1.0000041">
      <feGaussianBlur
         inkscape:collect="always"
         stdDeviation="0.0019743935"
         id="feGaussianBlur2381-5-7" />
    </filter>
    <filter
       inkscape:collect="always"
       style="color-interpolation-filters:sRGB"
       id="filter2379-8-2-6"
       x="-8.5516217e-07"
       width="1.0000017"
       y="-2.0108673e-06"
       height="1.0000041">
      <feGaussianBlur
         inkscape:collect="always"
         stdDeviation="0.0019743935"
         id="feGaussianBlur2381-5-7-6" />
    </filter>
    <filter
       inkscape:collect="always"
       style="color-interpolation-filters:sRGB"
       id="filter2379-1"
       x="-8.5516217e-07"
       width="1.0000017"
       y="-2.0108673e-06"
       height="1.0000041">
      <feGaussianBlur
         inkscape:collect="always"
         stdDeviation="0.0019743935"
         id="feGaussianBlur2381-0" />
    </filter>
    <filter
       inkscape:collect="always"
       style="color-interpolation-filters:sRGB"
       id="filter2379-9"
       x="-8.5516217e-07"
       width="1.0000017"
       y="-2.0108673e-06"
       height="1.0000041">
      <feGaussianBlur
         inkscape:collect="always"
         stdDeviation="0.0019743935"
         id="feGaussianBlur2381-9" />
    </filter>
    <filter
       inkscape:collect="always"
       style="color-interpolation-filters:sRGB"
       id="filter2379-9-0-8"
       x="-8.5516217e-07"
       width="1.0000017"
       y="-2.0108673e-06"
       height="1.0000041">
      <feGaussianBlur
         inkscape:collect="always"
         stdDeviation="0.0019743935"
         id="feGaussianBlur2381-9-3-4" />
    </filter>
  </defs>
  <sodipodi:namedview
     pagecolor="#ffffff"
     bordercolor="#666666"
     borderopacity="1"
     objecttolerance="10"
     gridtolerance="10"
     guidetolerance="10"
     inkscape:pageopacity="0"
     inkscape:pageshadow="2"
     inkscape:window-width="1920"
     inkscape:window-height="986"
     id="namedview12"
     showgrid="false"
     inkscape:zoom="0.91736528"
     inkscape:cx="441.70151"
     inkscape:cy="86.875154"
     inkscape:window-x="-11"
     inkscape:window-y="-11"
     inkscape:window-maximized="1"
     inkscape:current-layer="g18"
     inkscape:document-rotation="0" />
  <g
     inkscape:groupmode="layer"
     inkscape:label="Image"
     id="g18"
     style="display:inline;filter:url(#filter2379)">
    <text
       xml:space="preserve"
       style="font-size:74.6667px;line-height:1.25;font-family:sans-serif"
       x="283.42038"
       y="452.38251"
       id="text2360"><tspan
         sodipodi:role="line"
         id="tspan2358"
         x="283.42038"
         y="452.38251" /><tspan
         sodipodi:role="line"
         x="283.42038"
         y="545.71588"
         id="tspan2362" /></text>
    <rect
       style="fill:#335879;fill-opacity:0.996078;stroke-width:32.3752"
       id="rect862"
       width="1000"
       height="230"
       x="0"
       y="0" />
    <text
       xml:space="preserve"
       style="font-size:34.8709px;line-height:0;font-family:sans-serif;display:inline;stroke-width:0.46702;filter:url(#filter2379)"
       x="567.00067"
       y="-30.931973"
       id="text1637-5"
       transform="rotate(17.416928,250.24221,-60.768546)"><tspan
         sodipodi:role="line"
         id="tspan1635-5"
         x="567.00067"
         y="-30.931973"
         style="font-style:normal;font-variant:normal;font-weight:normal;font-stretch:normal;line-height:1.25;font-family:Gabriola;-inkscape-font-specification:Gabriola;fill:#ffffff;fill-opacity:1;stroke-width:0.46702">s = 8</tspan><tspan
         sodipodi:role="line"
         x="567.00067"
         y="12.656651"
         style="font-style:normal;font-variant:normal;font-weight:normal;font-stretch:normal;line-height:1.25;font-family:Gabriola;-inkscape-font-specification:Gabriola;fill:#ffffff;fill-opacity:1;stroke-width:0.46702"
         id="tspan1689">p = rts</tspan><tspan
         sodipodi:role="line"
         x="567.00067"
         y="56.245277"
         style="font-style:normal;font-variant:normal;font-weight:normal;font-stretch:normal;line-height:1.25;font-family:Gabriola;-inkscape-font-specification:Gabriola;fill:#ffffff;fill-opacity:1;stroke-width:0.46702"
         id="tspan1691">3ab / 2piR² = 3qbc</tspan></text>
    <path
       style="display:inline;fill:none;fill-opacity:1;stroke:#ffffff;stroke-width:3.3;stroke-linecap:butt;stroke-linejoin:miter;stroke-miterlimit:4;stroke-dasharray:26.4,6.6,3.3,6.6;stroke-dashoffset:0;stroke-opacity:1;filter:url(#filter2379)"
       d="m 582.64687,284.51044 c 8.72062,-9.81071 458.92293,-368.446471 458.92293,-368.446471"
       id="path1693-6"
       transform="rotate(67.702394,587.0133,-174.3014)" />
    <path
       style="display:inline;fill:none;fill-opacity:1;stroke:#ffffff;stroke-width:4.2;stroke-linecap:butt;stroke-linejoin:miter;stroke-miterlimit:4;stroke-dasharray:8.4, 4.2, 2.1, 4.2;stroke-dashoffset:0;stroke-opacity:1;filter:url(#filter2379-9-0-8)"
       d="m 582.64687,284.51044 c 8.72062,-9.81071 458.92293,-368.446471 458.92293,-368.446471"
       id="path1693-6-7-5-4"
       transform="rotate(142.58367,852.72759,53.895793)" />
    <path
       style="display:inline;fill:none;fill-opacity:1;stroke:#ffffff;stroke-width:4.2;stroke-linecap:butt;stroke-linejoin:miter;stroke-miterlimit:4;stroke-dasharray:8.4,4.2,2.1,4.2;stroke-dashoffset:0;stroke-opacity:1;filter:url(#filter2379-9)"
       d="m 582.64687,284.51044 c 8.72062,-9.81071 458.92293,-368.446471 458.92293,-368.446471"
       id="path1693-6-7"
       transform="rotate(142.58367,796.4978,130.23833)" />
    <path
       style="fill:none;fill-opacity:1;stroke:#ffffff;stroke-width:6;stroke-linecap:butt;stroke-linejoin:miter;stroke-miterlimit:4;stroke-dasharray:12, 36;stroke-dashoffset:0;stroke-opacity:1"
       d="m -37.062663,247.44778 c 8.720626,-9.81071 458.922973,-368.44647 458.922973,-368.44647"
       id="path1693" />
    <path
       id="path1014-0-0-5-6-0-6-6-01-6-8"
       style="display:inline;fill:#fffcff;fill-opacity:1;stroke:none;stroke-width:14.6516;stroke-miterlimit:4;stroke-dasharray:none;stroke-opacity:1;filter:url(#filter2379-1)"
       inkscape:transform-center-x="6.0313639"
       inkscape:transform-center-y="1.7536291"
       d="m 654.97633,82.671491 1.98372,12.928297 -16.983,9.900962 -10.03613,-8.233812 -12.82032,12.951352 8.0982,10.19131 -9.82149,17.1776 -12.75501,-2.04667 -4.71114,17.71072 12.04278,4.72417 -0.0285,19.85164 -12.05623,4.68834 4.66049,17.72423 12.76053,-2.00979 9.77248,17.20634 -8.12695,10.16803 12.78326,12.98887 10.05907,-8.20466 16.95473,9.95067 -2.02017,12.9227 17.48095,4.77296 4.66286,-12.20111 19.59398,0.0289 4.62756,12.21476 17.49423,-4.72171 -1.98371,-12.92836 16.98306,-9.90097 10.03607,8.2338 12.82033,-12.95134 -8.0982,-10.1913 9.82154,-17.17759 12.75501,2.04667 4.71127,-17.71072 -12.04279,-4.72423 0.0285,-19.85158 12.05625,-4.68841 -4.66044,-17.72423 -12.76059,2.0098 -9.77248,-17.2063 8.12695,-10.16802 -12.78326,-12.988832 -10.05907,8.204632 -16.95467,-9.950622 2.02011,-12.922705 -17.48089,-4.773017 -4.66292,12.201051 -19.01501,0.569681 -4.0373,-11.369217 -18.66365,3.277919 z m 31.71712,24.575389 h 0.0909 c 33.12494,0 59.97796,27.20607 59.97808,60.76653 -1.2e-4,33.56047 -26.85314,60.76658 -59.97808,60.76658 -33.12489,0 -59.97797,-27.20611 -59.97802,-60.76658 5e-5,-33.52451 26.79768,-60.71572 59.8871,-60.76653 z"
       sodipodi:nodetypes="ccccccccccccccccccccccccccccccccccccccccccccccccccccccsc"
       inkscape:export-xdpi="300"
       inkscape:export-ydpi="300"
       transform="matrix(0.85447345,0,0,0.85447345,17.135566,109.24171)" />
    <text
       xml:space="preserve"
       style="font-size:34.8709px;line-height:1.25;font-family:sans-serif;stroke-width:0.46702"
       x="10.934655"
       y="91.807259"
       id="text1637"
       transform="rotate(17.416928)"><tspan
         sodipodi:role="line"
         id="tspan1635"
         x="10.934655"
         y="91.807259"
         style="font-style:normal;font-variant:normal;font-weight:normal;font-stretch:normal;font-family:Gabriola;-inkscape-font-specification:Gabriola;fill:#ffffff;fill-opacity:1;stroke-width:0.46702">(a+b)²=a²+2ab+b²</tspan></text>
    <path
       id="path1014-0-0-5-6-0-6-6-01-6"
       style="display:inline;fill:#fffcff;fill-opacity:1;stroke:none;stroke-width:14.6516;stroke-miterlimit:4;stroke-dasharray:none;stroke-opacity:1;filter:url(#filter2379)"
       inkscape:transform-center-x="3.9769401"
       inkscape:transform-center-y="1.1563036"
       d="m 654.97633,82.671491 1.98372,12.928297 -16.983,9.900962 -10.03613,-8.233812 -12.82032,12.951352 8.0982,10.19131 -9.82149,17.1776 -12.75501,-2.04667 -4.71114,17.71072 12.04278,4.72417 -0.0285,19.85164 -12.05623,4.68834 4.66049,17.72423 12.76053,-2.00979 9.77248,17.20634 -8.12695,10.16803 12.78326,12.98887 10.05907,-8.20466 16.95473,9.95067 -2.02017,12.9227 17.48095,4.77296 4.66286,-12.20111 19.59398,0.0289 4.62756,12.21476 17.49423,-4.72171 -1.98371,-12.92836 16.98306,-9.90097 10.03607,8.2338 12.82033,-12.95134 -8.0982,-10.1913 9.82154,-17.17759 12.75501,2.04667 4.71127,-17.71072 -12.04279,-4.72423 0.0285,-19.85158 12.05625,-4.68841 -4.66044,-17.72423 -12.76059,2.0098 -9.77248,-17.2063 8.12695,-10.16802 -12.78326,-12.988832 -10.05907,8.204632 -16.95467,-9.950622 2.02011,-12.922705 -17.48089,-4.773017 -4.66292,12.201051 -19.01501,0.569681 -4.0373,-11.369217 -18.66365,3.277919 z m 31.71712,24.575389 h 0.0909 c 33.12494,0 59.97796,27.20607 59.97808,60.76653 -1.2e-4,33.56047 -26.85314,60.76658 -59.97808,60.76658 -33.12489,0 -59.97797,-27.20611 -59.97802,-60.76658 5e-5,-33.52451 26.79768,-60.71572 59.8871,-60.76653 z"
       sodipodi:nodetypes="ccccccccccccccccccccccccccccccccccccccccccccccccccccccsc"
       inkscape:export-xdpi="300"
       inkscape:export-ydpi="300"
       transform="matrix(0.56342035,0,0,0.56342035,-95.084218,65.652552)" />
    <rect
       style="fill:none;fill-opacity:1;stroke:#ffffff;stroke-width:6;stroke-miterlimit:4;stroke-dasharray:none;stroke-opacity:1"
       id="rect1533"
       width="137.34987"
       height="201.66449"
       x="248.79636"
       y="-12.572172"
       transform="rotate(21.520237)" />
    <path
       id="path1014-0-0-5-6-0-6-6-01-6-0"
       style="display:inline;fill:#fffcff;fill-opacity:1;stroke:none;stroke-width:14.6516;stroke-miterlimit:4;stroke-dasharray:none;stroke-opacity:1;filter:url(#filter2379-8)"
       inkscape:transform-center-x="2.7080287"
       inkscape:transform-center-y="0.78736714"
       d="m 654.97633,82.671491 1.98372,12.928297 -16.983,9.900962 -10.03613,-8.233812 -12.82032,12.951352 8.0982,10.19131 -9.82149,17.1776 -12.75501,-2.04667 -4.71114,17.71072 12.04278,4.72417 -0.0285,19.85164 -12.05623,4.68834 4.66049,17.72423 12.76053,-2.00979 9.77248,17.20634 -8.12695,10.16803 12.78326,12.98887 10.05907,-8.20466 16.95473,9.95067 -2.02017,12.9227 17.48095,4.77296 4.66286,-12.20111 19.59398,0.0289 4.62756,12.21476 17.49423,-4.72171 -1.98371,-12.92836 16.98306,-9.90097 10.03607,8.2338 12.82033,-12.95134 -8.0982,-10.1913 9.82154,-17.17759 12.75501,2.04667 4.71127,-17.71072 -12.04279,-4.72423 0.0285,-19.85158 12.05625,-4.68841 -4.66044,-17.72423 -12.76059,2.0098 -9.77248,-17.2063 8.12695,-10.16802 -12.78326,-12.988832 -10.05907,8.204632 -16.95467,-9.950622 2.02011,-12.922705 -17.48089,-4.773017 -4.66292,12.201051 -19.01501,0.569681 -4.0373,-11.369217 -18.66365,3.277919 z m 31.71712,24.575389 h 0.0909 c 33.12494,0 59.97796,27.20607 59.97808,60.76653 -1.2e-4,33.56047 -26.85314,60.76658 -59.97808,60.76658 -33.12489,0 -59.97797,-27.20611 -59.97802,-60.76658 5e-5,-33.52451 26.79768,-60.71572 59.8871,-60.76653 z"
       sodipodi:nodetypes="ccccccccccccccccccccccccccccccccccccccccccccccccccccccsc"
       inkscape:export-xdpi="300"
       inkscape:export-ydpi="300"
       transform="matrix(0.38365226,0,0,0.38365226,-37.755075,150.39859)" />
    <path
       id="path1014-0-0-5-6-0-6-6-01"
       style="display:inline;fill:#fffcff;fill-opacity:1;stroke:#ffffff;stroke-width:14.6516;stroke-miterlimit:4;stroke-dasharray:none;stroke-opacity:1"
       inkscape:transform-center-x="7.0585751"
       inkscape:transform-center-y="2.0522898"
       d="m 849.73631,28.755811 1.98372,12.928297 -16.983,9.90096 -10.03613,-8.23381 -12.82032,12.95135 8.0982,10.19131 -9.82149,17.1776 -12.75501,-2.04667 -4.71114,17.71072 12.04278,4.724172 -0.0285,19.85164 -12.05623,4.68834 4.66049,17.72423 12.76053,-2.00979 9.77248,17.20634 -8.12695,10.16803 12.78326,12.98887 10.05907,-8.20466 16.95473,9.95067 -2.02017,12.9227 17.48095,4.77296 4.66286,-12.20111 19.59398,0.0289 4.62756,12.21476 17.49423,-4.72171 -1.98371,-12.92836 16.98306,-9.90097 10.03607,8.2338 12.82033,-12.95134 -8.0982,-10.1913 9.82154,-17.17759 12.75501,2.04667 4.71127,-17.71072 -12.04279,-4.72423 0.0285,-19.85158 12.05625,-4.688412 -4.66044,-17.72423 -12.76059,2.0098 -9.77248,-17.2063 8.12695,-10.16802 -12.78326,-12.98883 -10.05907,8.20463 -16.95467,-9.95062 2.02011,-12.922705 -17.48089,-4.773017 -4.66292,12.201051 -19.01501,0.569681 -4.0373,-11.369217 -18.66365,3.277919 z m 31.71712,24.575387 h 0.0909 c 33.12494,0 59.97796,27.20607 59.97808,60.766532 -1.2e-4,33.56047 -26.85314,60.76658 -59.97808,60.76658 -33.12489,0 -59.97797,-27.20611 -59.97802,-60.76658 5e-5,-33.524512 26.79768,-60.715722 59.8871,-60.766532 z"
       sodipodi:nodetypes="ccccccccccccccccccccccccccccccccccccccccccccccccccccccsc"
       inkscape:export-xdpi="300"
       inkscape:export-ydpi="300" />
    <ellipse
       style="display:inline;fill:#ffffff;fill-opacity:1;stroke:none;stroke-width:4.98826;stroke-miterlimit:4;stroke-dasharray:none;stroke-opacity:1"
       id="path1698-2-4-9-7"
       cx="880.71082"
       cy="112.71433"
       rx="60.349957"
       ry="61.143181"
       inkscape:export-xdpi="300"
       inkscape:export-ydpi="300" />
    <text
       xml:space="preserve"
       style="font-size:22.7915px;line-height:1.25;font-family:sans-serif;display:inline;stroke-width:0.610483"
       x="829.50885"
       y="113.42289"
       id="text1497-7-0-9-7"
       inkscape:export-xdpi="300"
       inkscape:export-ydpi="300"
       transform="scale(0.99349045,1.0065522)"><tspan
         sodipodi:role="line"
         x="829.50885"
         y="113.42289"
         id="tspan1505-5-6-1-90"
         style="stroke-width:0.610483">101001001</tspan><tspan
         sodipodi:role="line"
         x="829.50885"
         y="141.91226"
         id="tspan1511-6-8-3-4"
         style="stroke-width:0.610483">001001001</tspan><tspan
         sodipodi:role="line"
         x="829.50885"
         y="170.40164"
         id="tspan1515-6-12-3-6"
         style="stroke-width:0.610483">01001001</tspan></text>
    <ellipse
       style="display:inline;fill:none;fill-opacity:1;stroke:#ffffff;stroke-width:4.98826;stroke-miterlimit:4;stroke-dasharray:none;stroke-opacity:1"
       id="path1698-8-5-3"
       cx="881.54456"
       cy="114.09788"
       rx="60.349957"
       ry="61.143181"
       inkscape:export-xdpi="300"
       inkscape:export-ydpi="300" />
    <path
       style="display:inline;fill:#ffffff;fill-opacity:1;stroke:none;stroke-width:0.39913px;stroke-linecap:butt;stroke-linejoin:miter;stroke-opacity:1"
       d="M 919.46759,122.58582 952.62954,89.331188 938.7309,75.417498 c 0,0 -19.26331,21.52772 -19.26331,21.52772 z"
       id="path1405-9-3-4-6-7"
       inkscape:export-xdpi="300"
       inkscape:export-ydpi="300" />
    <rect
       style="display:inline;fill:#ffffff;fill-opacity:1;stroke:none;stroke-width:0.244459;stroke-opacity:1"
       id="rect1383-7-3-1-65"
       width="74.159035"
       height="25.640575"
       x="845.30853"
       y="96.945183"
       inkscape:export-xdpi="300"
       inkscape:export-ydpi="300" />
    <path
       style="display:inline;fill:#ffffff;fill-opacity:1;stroke:none;stroke-width:0.39913px;stroke-linecap:butt;stroke-linejoin:miter;stroke-opacity:1"
       d="m 845.30853,122.58582 c -1.0247,1.2235 -19.86168,20.04631 -19.86168,20.04631 l -11.85295,-47.069632 31.71463,1.38272 z"
       id="path1407-9-3-2-0"
       inkscape:export-xdpi="300"
       inkscape:export-ydpi="300" />
    <path
       style="display:inline;fill:#f69300;fill-opacity:1;stroke:none;stroke-width:0.39913px;stroke-linecap:butt;stroke-linejoin:miter;stroke-opacity:1"
       d="m 820.98625,136.16491 20.26405,-20.47547 74.032,0.043 32.80193,-32.911382 c 0,0 -42.2298,-33.60613 -44.6072,-33.60613 -2.37735,0 -54.24758,5.69315 -54.24758,5.69315 l -28.96094,33.2831 -4.10639,33.283082 4.82413,14.6907"
       id="path1409-5-7-5-1"
       inkscape:export-xdpi="300"
       inkscape:export-ydpi="300" />
    <path
       style="display:inline;fill:#f69300;fill-opacity:1;stroke:none;stroke-width:0.39913px;stroke-linecap:butt;stroke-linejoin:miter;stroke-opacity:1"
       d="m 822.5724,139.37886 -0.3579,-2.07691 19.8617,-20.04631 74.15899,0.0431 33.16195,-33.297512 0.27317,2.03395 -32.80192,32.911372 -74.032,-0.0431 -20.26399,20.4754"
       id="path1381-9-7-3-65"
       inkscape:export-xdpi="300"
       inkscape:export-ydpi="300" />
    <path
       style="display:inline;fill:#000000;fill-opacity:1;stroke:none;stroke-width:0.192921px;stroke-linecap:butt;stroke-linejoin:miter;stroke-opacity:1"
       d="m 822.5724,139.37886 20.26399,-20.47542 74.032,0.0431 32.80192,-32.911382 1.31298,1.18 -33.16195,33.297522 -74.15906,-0.0431 -19.86169,20.04639 z"
       id="path24-3-5-8-5-4"
       sodipodi:nodetypes="ccccccccc"
       inkscape:export-xdpi="300"
       inkscape:export-ydpi="300" />
    <path
       style="display:inline;fill:#000000;fill-opacity:1;stroke:none;stroke-width:0.192921px;stroke-linecap:butt;stroke-linejoin:miter;stroke-opacity:1"
       d="m 820.98625,136.16491 20.26405,-20.47547 74.032,0.043 32.80193,-32.911382 1.31291,1.18 -33.16195,33.297582 -74.15899,-0.0431 -19.8617,20.04631 z"
       id="path24-3-3-1-3-4-7"
       sodipodi:nodetypes="ccccccccc"
       inkscape:export-xdpi="300"
       inkscape:export-ydpi="300" />
    <rect
       style="display:inline;fill:#000000;fill-opacity:1;stroke:none;stroke-width:0.39913;stroke-opacity:1"
       id="rect1165-5-8-3-3"
       width="28.946917"
       height="5.6244502"
       x="865.75928"
       y="93.605583"
       inkscape:export-xdpi="300"
       inkscape:export-ydpi="300" />
    <rect
       style="display:inline;fill:#000000;fill-opacity:1;stroke:none;stroke-width:0.40841;stroke-opacity:1"
       id="rect1167-0-9-7-6"
       width="21.466806"
       height="19.36937"
       x="869.72461"
       y="73.432686"
       ry="0"
       inkscape:export-xdpi="300"
       inkscape:export-ydpi="300" />
    <ellipse
       style="display:inline;fill:#000000;fill-opacity:1;stroke:none;stroke-width:0.395221;stroke-opacity:1"
       id="path1169-4-9-9-6"
       cx="880.43109"
       cy="73.377769"
       inkscape:export-xdpi="300"
       inkscape:export-ydpi="300"
       rx="10.706392"
       ry="10.847154" />
    <rect
       style="display:inline;fill:#f69300;fill-opacity:1;stroke:none;stroke-width:0.39913;stroke-opacity:1"
       id="rect1186-3-4-1-0"
       width="11.499454"
       height="14.061123"
       x="874.08643"
       y="76.732292"
       inkscape:export-xdpi="300"
       inkscape:export-ydpi="300" />
    <rect
       style="display:inline;fill:#000000;fill-opacity:1;stroke:none;stroke-width:0.39913;stroke-opacity:1"
       id="rect1188-5-6-3-2"
       width="6.3445258"
       height="7.633182"
       x="878.05176"
       y="83.16021"
       inkscape:export-xdpi="300"
       inkscape:export-ydpi="300" />
    <rect
       style="display:inline;fill:#000000;fill-opacity:1;stroke:none;stroke-width:0.271724;stroke-opacity:1"
       id="rect1188-6-8-1-3-1"
       width="1.7874435"
       height="12.557382"
       x="652.2934"
       y="592.28778"
       transform="matrix(0.79280153,-0.60947988,0.59945919,0.80040532,0,0)"
       inkscape:export-xdpi="300"
       inkscape:export-ydpi="300" />
    <rect
       style="display:inline;fill:#000000;fill-opacity:1;stroke:none;stroke-width:0.379059;stroke-opacity:1"
       id="rect1210-2-0-5-41"
       width="2.7813766"
       height="20.32979"
       x="874.57587"
       y="100.18781"
       inkscape:export-xdpi="300"
       inkscape:export-ydpi="300" />
    <rect
       style="display:inline;fill:#000000;fill-opacity:1;stroke:none;stroke-width:0.459408;stroke-opacity:1"
       id="rect1212-1-1-0-02"
       width="2.7757134"
       height="17.085375"
       x="882.10999"
       y="100.18781"
       inkscape:export-xdpi="300"
       inkscape:export-ydpi="300" />
    <path
       id="path1014-0-0-6-8-1-9-64"
       style="display:inline;fill:#000000;fill-opacity:1;stroke:none;stroke-width:0.39913;stroke-opacity:1"
       inkscape:transform-center-x="7.058584"
       inkscape:transform-center-y="2.0522725"
       d="m 849.73631,28.755811 1.98372,12.928297 -16.983,9.90096 -10.03613,-8.23381 -12.82032,12.95135 8.0982,10.19131 -9.82149,17.1776 -12.75501,-2.04667 -4.71114,17.71072 12.04278,4.724172 -0.0285,19.85164 -12.05624,4.68834 4.6605,17.72423 12.76052,-2.00979 9.77248,17.20634 -8.12695,10.16804 12.78326,12.98886 10.05907,-8.20468 16.95473,9.9507 -2.02017,12.92269 17.48095,4.77296 4.66286,-12.20112 19.59398,0.0289 4.62756,12.21474 17.49423,-4.72171 -1.98371,-12.92836 16.98306,-9.90098 10.03607,8.23383 12.82033,-12.95134 -8.0982,-10.19131 9.82154,-17.17759 12.75501,2.04667 4.71127,-17.71071 -12.04279,-4.72423 0.0285,-19.85159 12.05625,-4.688412 -4.66044,-17.72423 -12.76059,2.0098 -9.77248,-17.2063 8.12695,-10.16802 -12.78326,-12.98883 -10.05907,8.20463 -16.95467,-9.95062 2.02011,-12.922697 -17.48089,-4.773024 -4.66292,12.201051 -19.01501,0.56969 -4.0373,-11.369219 -18.66365,3.277912 z m 31.71712,24.575387 h 0.0909 c 33.12494,0 59.97796,27.20607 59.97808,60.766532 -1.2e-4,33.56047 -26.85314,60.76658 -59.97808,60.76658 -33.12489,0 -59.97797,-27.20611 -59.97802,-60.76658 5e-5,-33.524512 26.79768,-60.715722 59.8871,-60.766532 z"
       sodipodi:nodetypes="ccccccccccccccccccccccccccccccccccccccccccccccccccccccsc"
       inkscape:export-xdpi="300"
       inkscape:export-ydpi="300" />
    <text
       xml:space="preserve"
       style="font-size:74.6667px;line-height:1.25;font-family:sans-serif;letter-spacing:0px;fill:#f69300;fill-opacity:1;stroke:#335778;stroke-opacity:0.99607843;stroke-width:12;stroke-miterlimit:4;stroke-dasharray:none;paint-order:stroke markers fill"
       x="29.055767"
       y="96.864304"
       id="text864"
       inkscape:export-xdpi="150"
       inkscape:export-ydpi="150"><tspan
         sodipodi:role="line"
         id="tspan862"
         x="29.055767"
         y="96.864304"
         style="font-style:normal;font-variant:normal;font-weight:bold;font-stretch:normal;font-size:96px;font-family:'open sans';-inkscape-font-specification:'open sans Bold';fill:#f69300;fill-opacity:1;stroke:#335778;stroke-opacity:0.99607843;stroke-width:12;stroke-miterlimit:4;stroke-dasharray:none;paint-order:stroke markers fill">Club R  b  tique </tspan><tspan
         sodipodi:role="line"
         x="29.055767"
         y="195.57939"
         style="font-style:normal;font-variant:normal;font-weight:bold;font-stretch:normal;font-size:53.3333px;font-family:'open sans';-inkscape-font-specification:'open sans Bold';fill:#f69300;fill-opacity:1;stroke:#335778;stroke-opacity:0.99607843;stroke-width:12;stroke-miterlimit:4;stroke-dasharray:none;paint-order:stroke markers fill"
         id="tspan864">de l'INSA de Strasbourg</tspan></text>
    <path
       id="path1014-0-0-5-6-0-6-6-01-6-0-5"
       style="display:inline;fill:#fffcff;fill-opacity:1;stroke:none;stroke-width:14.6516;stroke-miterlimit:4;stroke-dasharray:none;stroke-opacity:1;filter:url(#filter2379-8-2)"
       inkscape:transform-center-x="2.7080287"
       inkscape:transform-center-y="0.78736714"
       d="m 654.97633,82.671491 1.98372,12.928297 -16.983,9.900962 -10.03613,-8.233812 -12.82032,12.951352 8.0982,10.19131 -9.82149,17.1776 -12.75501,-2.04667 -4.71114,17.71072 12.04278,4.72417 -0.0285,19.85164 -12.05623,4.68834 4.66049,17.72423 12.76053,-2.00979 9.77248,17.20634 -8.12695,10.16803 12.78326,12.98887 10.05907,-8.20466 16.95473,9.95067 -2.02017,12.9227 17.48095,4.77296 4.66286,-12.20111 19.59398,0.0289 4.62756,12.21476 17.49423,-4.72171 -1.98371,-12.92836 16.98306,-9.90097 10.03607,8.2338 12.82033,-12.95134 -8.0982,-10.1913 9.82154,-17.17759 12.75501,2.04667 4.71127,-17.71072 -12.04279,-4.72423 0.0285,-19.85158 12.05625,-4.68841 -4.66044,-17.72423 -12.76059,2.0098 -9.77248,-17.2063 8.12695,-10.16802 -12.78326,-12.988832 -10.05907,8.204632 -16.95467,-9.950622 2.02011,-12.922705 -17.48089,-4.773017 -4.66292,12.201051 -19.01501,0.569681 -4.0373,-11.369217 -18.66365,3.277919 z m 31.71712,24.575389 h 0.0909 c 33.12494,0 59.97796,27.20607 59.97808,60.76653 -1.2e-4,33.56047 -26.85314,60.76658 -59.97808,60.76658 -33.12489,0 -59.97797,-27.20611 -59.97802,-60.76658 5e-5,-33.52451 26.79768,-60.71572 59.8871,-60.76653 z"
       sodipodi:nodetypes="ccccccccccccccccccccccccccccccccccccccccccccccccccccccsc"
       inkscape:export-xdpi="300"
       inkscape:export-ydpi="300"
       transform="matrix(0.38365226,0,0,0.38365226,24.145562,179.30546)" />
    <path
       id="path1014-0-0-5-6-0-6-6-01-6-0-5-2"
       style="display:inline;fill:#fffcff;fill-opacity:1;stroke:none;stroke-width:14.6516;stroke-miterlimit:4;stroke-dasharray:none;stroke-opacity:1;filter:url(#filter2379-8-2-6)"
       inkscape:transform-center-x="1.3484869"
       inkscape:transform-center-y="0.39207812"
       d="m 654.97633,82.671491 1.98372,12.928297 -16.983,9.900962 -10.03613,-8.233812 -12.82032,12.951352 8.0982,10.19131 -9.82149,17.1776 -12.75501,-2.04667 -4.71114,17.71072 12.04278,4.72417 -0.0285,19.85164 -12.05623,4.68834 4.66049,17.72423 12.76053,-2.00979 9.77248,17.20634 -8.12695,10.16803 12.78326,12.98887 10.05907,-8.20466 16.95473,9.95067 -2.02017,12.9227 17.48095,4.77296 4.66286,-12.20111 19.59398,0.0289 4.62756,12.21476 17.49423,-4.72171 -1.98371,-12.92836 16.98306,-9.90097 10.03607,8.2338 12.82033,-12.95134 -8.0982,-10.1913 9.82154,-17.17759 12.75501,2.04667 4.71127,-17.71072 -12.04279,-4.72423 0.0285,-19.85158 12.05625,-4.68841 -4.66044,-17.72423 -12.76059,2.0098 -9.77248,-17.2063 8.12695,-10.16802 -12.78326,-12.988832 -10.05907,8.204632 -16.95467,-9.950622 2.02011,-12.922705 -17.48089,-4.773017 -4.66292,12.201051 -19.01501,0.569681 -4.0373,-11.369217 -18.66365,3.277919 z m 31.71712,24.575389 h 0.0909 c 33.12494,0 59.97796,27.20607 59.97808,60.76653 -1.2e-4,33.56047 -26.85314,60.76658 -59.97808,60.76658 -33.12489,0 -59.97797,-27.20611 -59.97802,-60.76658 5e-5,-33.52451 26.79768,-60.71572 59.8871,-60.76653 z"
       sodipodi:nodetypes="ccccccccccccccccccccccccccccccccccccccccccccccccccccccsc"
       inkscape:export-xdpi="300"
       inkscape:export-ydpi="300"
       transform="matrix(0.19104359,0,0,0.19104359,106.73419,93.736172)" />
    <path
       id="path1014-0-0-5-6-0-6-6-01-0"
       style="display:inline;fill:#f69300;fill-opacity:1;stroke:none;stroke-width:12;stroke-miterlimit:4;stroke-dasharray:none;stroke-opacity:1;filter:url(#filter2379)"
       inkscape:transform-center-x="2.1828989"
       inkscape:transform-center-y="0.63468776"
       d="m 587.90147,35.090359 1.98372,12.928297 -16.983,9.90096 -10.03613,-8.23381 -12.82032,12.95135 8.0982,10.19131 -9.82149,17.1776 -12.75501,-2.04667 -4.71114,17.710724 12.04278,4.72417 -0.0285,19.85164 -12.05623,4.68834 4.66049,17.72423 12.76053,-2.00979 9.77248,17.20634 -8.12695,10.16803 12.78326,12.98887 10.05907,-8.20466 16.95473,9.95067 -2.02017,12.9227 17.48095,4.77296 4.66286,-12.20111 19.59398,0.0289 4.62756,12.21476 17.49423,-4.72171 -1.98371,-12.92836 16.98306,-9.90097 10.03607,8.2338 12.82033,-12.95134 -8.0982,-10.1913 9.82154,-17.17759 12.75501,2.04667 4.71127,-17.71072 -12.04279,-4.72423 0.0285,-19.85158 12.05625,-4.68841 -4.66044,-17.724234 -12.76059,2.0098 -9.77248,-17.2063 8.12695,-10.16802 -12.78326,-12.98883 -10.05907,8.20463 -16.95467,-9.95062 2.02011,-12.922705 -17.48089,-4.773017 -4.66292,12.201051 -19.01501,0.569681 -4.0373,-11.369217 -18.66365,3.277919 z m 31.71712,24.575387 h 0.0909 c 33.12494,0 59.97796,27.20607 59.97808,60.766534 -1.2e-4,33.56047 -26.85314,60.76658 -59.97808,60.76658 -33.12489,0 -59.97797,-27.20611 -59.97802,-60.76658 5e-5,-33.524514 26.79768,-60.715724 59.8871,-60.766534 z"
       sodipodi:nodetypes="ccccccccccccccccccccccccccccccccccccccccccccccccccccccsc"
       inkscape:export-xdpi="300"
       inkscape:export-ydpi="300"
       transform="matrix(0.3092551,0,0,0.3092551,168.10962,31.951283)" />
    <path
       id="path1014-0-0-5-6-0-6-6-01-0-5"
       style="display:inline;fill:#f69300;fill-opacity:1;stroke:none;stroke-width:12;stroke-miterlimit:4;stroke-dasharray:none;stroke-opacity:1;filter:url(#filter2379-0)"
       inkscape:transform-center-x="2.1828989"
       inkscape:transform-center-y="0.63468776"
       d="m 587.90147,35.090359 1.98372,12.928297 -16.983,9.90096 -10.03613,-8.23381 -12.82032,12.95135 8.0982,10.19131 -9.82149,17.1776 -12.75501,-2.04667 -4.71114,17.710724 12.04278,4.72417 -0.0285,19.85164 -12.05623,4.68834 4.66049,17.72423 12.76053,-2.00979 9.77248,17.20634 -8.12695,10.16803 12.78326,12.98887 10.05907,-8.20466 16.95473,9.95067 -2.02017,12.9227 17.48095,4.77296 4.66286,-12.20111 19.59398,0.0289 4.62756,12.21476 17.49423,-4.72171 -1.98371,-12.92836 16.98306,-9.90097 10.03607,8.2338 12.82033,-12.95134 -8.0982,-10.1913 9.82154,-17.17759 12.75501,2.04667 4.71127,-17.71072 -12.04279,-4.72423 0.0285,-19.85158 12.05625,-4.68841 -4.66044,-17.724234 -12.76059,2.0098 -9.77248,-17.2063 8.12695,-10.16802 -12.78326,-12.98883 -10.05907,8.20463 -16.95467,-9.95062 2.02011,-12.922705 -17.48089,-4.773017 -4.66292,12.201051 -19.01501,0.569681 -4.0373,-11.369217 -18.66365,3.277919 z m 31.71712,24.575387 h 0.0909 c 33.12494,0 59.97796,27.20607 59.97808,60.766534 -1.2e-4,33.56047 -26.85314,60.76658 -59.97808,60.76658 -33.12489,0 -59.97797,-27.20611 -59.97802,-60.76658 5e-5,-33.524514 26.79768,-60.715724 59.8871,-60.766534 z"
       sodipodi:nodetypes="ccccccccccccccccccccccccccccccccccccccccccccccccccccccsc"
       inkscape:export-xdpi="300"
       inkscape:export-ydpi="300"
       transform="matrix(0.3092551,0,0,0.3092551,274.442,31.951314)" />
  </g>
  <g
     inkscape:groupmode="layer"
     id="layer1"
     inkscape:label="ligne_orange"
     style="display:inline" />
</svg>
