<?xml version="1.0" encoding="UTF-8" standalone="no"?>
<svg
   xmlns:dc="http://purl.org/dc/elements/1.1/"
   xmlns:cc="http://creativecommons.org/ns#"
   xmlns:rdf="http://www.w3.org/1999/02/22-rdf-syntax-ns#"
   xmlns:svg="http://www.w3.org/2000/svg"
   xmlns="http://www.w3.org/2000/svg"
   xmlns:sodipodi="http://sodipodi.sourceforge.net/DTD/sodipodi-0.dtd"
   xmlns:inkscape="http://www.inkscape.org/namespaces/inkscape"
   version="1.1"
   id="svg10"
   width="1000"
   height="1000"
   viewBox="0 0 1000 1000"
   sodipodi:docname="logo_cris_simple.svg"
   inkscape:version="1.0.2-2 (e86c870879, 2021-01-15)"
   inkscape:export-filename="C:\Users\thiba\OneDrive\Bureau\CRIS_logo_simplifie_V3.png"
   inkscape:export-xdpi="150"
   inkscape:export-ydpi="150">
  <metadata
     id="metadata16">
    <rdf:RDF>
      <cc:Work
         rdf:about="">
        <dc:format>image/svg+xml</dc:format>
        <dc:type
           rdf:resource="http://purl.org/dc/dcmitype/StillImage" />
        <dc:title />
      </cc:Work>
    </rdf:RDF>
  </metadata>
  <defs
     id="defs14">
    <filter
       inkscape:collect="always"
       style="color-interpolation-filters:sRGB"
       id="filter2379"
       x="-8.5516219e-07"
       width="1.0000017"
       y="-2.0108673e-06"
       height="1.000004">
      <feGaussianBlur
         inkscape:collect="always"
         stdDeviation="0.0019743935"
         id="feGaussianBlur2381" />
    </filter>
  </defs>
  <sodipodi:namedview
     pagecolor="#ffffff"
     bordercolor="#666666"
     borderopacity="1"
     objecttolerance="10"
     gridtolerance="10"
     guidetolerance="10"
     inkscape:pageopacity="0"
     inkscape:pageshadow="2"
     inkscape:window-width="1898"
     inkscape:window-height="1020"
     id="namedview12"
     showgrid="false"
     inkscape:zoom="0.45868264"
     inkscape:cx="292.65863"
     inkscape:cy="399.22681"
     inkscape:window-x="0"
     inkscape:window-y="0"
     inkscape:window-maximized="0"
     inkscape:current-layer="g18"
     inkscape:document-rotation="0" />
  <g
     inkscape:groupmode="layer"
     inkscape:label="Image"
     id="g18"
     style="display:inline;filter:url(#filter2379)">
    <text
       xml:space="preserve"
       style="font-size:74.6667px;line-height:1.25;font-family:sans-serif"
       x="283.42038"
       y="452.38251"
       id="text2360"><tspan
         sodipodi:role="line"
         id="tspan2358"
         x="283.42038"
         y="452.38251" /><tspan
         sodipodi:role="line"
         x="283.42038"
         y="545.71588"
         id="tspan2362" /></text>
    <path
       id="path1014-0-0-5-6-0-6-6-01"
       style="display:inline;fill:#fffcff;fill-opacity:1;stroke:#ffffff;stroke-width:74.1095;stroke-miterlimit:4;stroke-dasharray:none;stroke-opacity:1"
       inkscape:transform-center-x="35.703067"
       inkscape:transform-center-y="10.380556"
       d="m 339.11186,68.257368 10.03384,65.392602 -85.9017,50.08008 -50.76377,-41.64741 -64.84648,65.50915 40.96153,51.54868 -49.67808,86.88604 -64.516098,-10.35227 -23.829426,89.58256 60.913574,23.89534 -0.14419,100.41158 -60.981674,23.71414 23.573265,89.65091 64.544019,-10.16575 49.43019,87.0314 -41.10694,51.43088 64.65904,65.69905 50.87973,-41.50007 85.75875,50.33153 -10.21822,65.3643 88.42039,24.14209 23.58521,-61.71442 99.10828,0.14604 23.40668,61.78346 88.48755,-23.88291 -10.03383,-65.3929 85.90202,-50.08009 50.76346,41.64742 64.8465,-65.50916 -40.96153,-51.54865 49.67837,-86.88596 64.5161,10.35226 23.83004,-89.58256 -60.91359,-23.89563 0.14418,-100.4113 60.9817,-23.71442 -23.57297,-89.65091 -64.54431,10.16575 -49.4302,-87.03117 41.10696,-51.43087 -64.65906,-65.69876 -50.87973,41.49978 -85.75845,-50.33122 10.21791,-65.364313 -88.42006,-24.142409 -23.58554,61.714132 -96.17977,2.88154 -20.4211,-57.506648 -94.40257,16.580017 z M 499.5402,192.56211 h 0.45986 c 167.54932,0 303.37453,137.61107 303.37515,307.3632 -6.2e-4,169.75218 -135.82583,307.36344 -303.37515,307.36344 -167.549,0 -303.37451,-137.61126 -303.37482,-307.36344 3.1e-4,-169.57032 135.54541,-307.10616 302.91496,-307.3632 z"
       sodipodi:nodetypes="ccccccccccccccccccccccccccccccccccccccccccccccccccccccsc"
       inkscape:export-xdpi="300"
       inkscape:export-ydpi="300" />
    <ellipse
       style="display:inline;fill:#ffffff;fill-opacity:1;stroke:none;stroke-width:25.2311;stroke-miterlimit:4;stroke-dasharray:none;stroke-opacity:1"
       id="path1698-2-4-9-7"
       cx="495.7843"
       cy="492.92789"
       rx="305.2561"
       ry="309.26834"
       inkscape:export-xdpi="300"
       inkscape:export-ydpi="300" />
    <text
       xml:space="preserve"
       style="font-size:115.282px;line-height:1.25;font-family:sans-serif;display:inline;stroke-width:3.08789"
       x="210.8597"
       y="497.0145"
       id="text1497-7-0-9-7"
       inkscape:export-xdpi="300"
       inkscape:export-ydpi="300"
       transform="scale(0.99349041,1.0065522)"><tspan
         sodipodi:role="line"
         x="210.8597"
         y="497.0145"
         id="tspan1505-5-6-1-90"
         style="stroke-width:3.08789">101001001</tspan><tspan
         sodipodi:role="line"
         x="210.8597"
         y="641.11707"
         id="tspan1511-6-8-3-4"
         style="stroke-width:3.08789">001001001</tspan><tspan
         sodipodi:role="line"
         x="210.8597"
         y="785.21954"
         id="tspan1515-6-12-3-6"
         style="stroke-width:3.08789">01001001</tspan></text>
    <ellipse
       style="display:inline;fill:none;fill-opacity:1;stroke:#ffffff;stroke-width:25.2311;stroke-miterlimit:4;stroke-dasharray:none;stroke-opacity:1"
       id="path1698-8-5-3"
       cx="500.0014"
       cy="499.92612"
       rx="305.2561"
       ry="309.26834"
       inkscape:export-xdpi="300"
       inkscape:export-ydpi="300" />
    <path
       style="display:inline;fill:#ffffff;fill-opacity:1;stroke:none;stroke-width:2.01884px;stroke-linecap:butt;stroke-linejoin:miter;stroke-opacity:1"
       d="m 691.81964,542.85887 167.73645,-168.20521 -70.30073,-70.3768 c 0,0 -97.43572,108.88935 -97.43572,108.88935 z"
       id="path1405-9-3-4-6-7"
       inkscape:export-xdpi="300"
       inkscape:export-ydpi="300" />
    <rect
       style="display:inline;fill:#ffffff;fill-opacity:1;stroke:none;stroke-width:1.2365;stroke-opacity:1"
       id="rect1383-7-3-1-65"
       width="375.10382"
       height="129.6926"
       x="316.71585"
       y="413.16605"
       inkscape:export-xdpi="300"
       inkscape:export-ydpi="300" />
    <path
       style="display:inline;fill:#ffffff;fill-opacity:1;stroke:none;stroke-width:2.01884px;stroke-linecap:butt;stroke-linejoin:miter;stroke-opacity:1"
       d="m 316.7157,542.85887 c -5.18303,6.18859 -100.46239,101.39626 -100.46239,101.39626 l -59.95336,-238.08286 160.41575,6.99394 z"
       id="path1407-9-3-2-0"
       inkscape:export-xdpi="300"
       inkscape:export-ydpi="300" />
    <path
       style="display:inline;fill:#f69300;fill-opacity:1;stroke:none;stroke-width:2.01884px;stroke-linecap:butt;stroke-linejoin:miter;stroke-opacity:1"
       d="m 193.69119,611.5433 102.49759,-103.56697 374.46121,0.21738 165.91542,-166.46903 c 0,0 -213.6025,-169.98318 -225.62764,-169.98318 -12.02485,0 -274.38967,28.79652 -274.38967,28.79652 l -146.48733,168.34925 -20.77052,168.34914 24.40094,74.30703"
       id="path1409-5-7-5-1"
       inkscape:export-xdpi="300"
       inkscape:export-ydpi="300" />
    <path
       style="display:inline;fill:#f69300;fill-opacity:1;stroke:none;stroke-width:2.01884px;stroke-linecap:butt;stroke-linejoin:miter;stroke-opacity:1"
       d="M 201.7141,627.79975 199.90378,617.29458 300.3662,515.89833 675.46982,516.11605 843.20627,347.69389 844.588,357.9818 678.67259,524.45083 304.21138,524.23311 201.7141,627.79979"
       id="path1381-9-7-3-65"
       inkscape:export-xdpi="300"
       inkscape:export-ydpi="300" />
    <path
       style="display:inline;fill:#000000;fill-opacity:1;stroke:none;stroke-width:0.975813px;stroke-linecap:butt;stroke-linejoin:miter;stroke-opacity:1"
       d="M 201.7141,627.79975 304.21138,524.23308 678.67259,524.4508 844.588,357.98176 851.22917,363.9503 683.49271,532.3725 308.3888,532.15478 207.9264,633.55136 Z"
       id="path24-3-5-8-5-4"
       sodipodi:nodetypes="ccccccccc"
       inkscape:export-xdpi="300"
       inkscape:export-ydpi="300" />
    <path
       style="display:inline;fill:#000000;fill-opacity:1;stroke:none;stroke-width:0.975813px;stroke-linecap:butt;stroke-linejoin:miter;stroke-opacity:1"
       d="m 193.69119,611.5433 102.49759,-103.56697 374.46121,0.21738 165.91542,-166.46903 6.64086,5.96856 L 675.46982,516.11571 300.3662,515.898 199.90378,617.29424 Z"
       id="path24-3-3-1-3-4-7"
       sodipodi:nodetypes="ccccccccc"
       inkscape:export-xdpi="300"
       inkscape:export-ydpi="300" />
    <rect
       style="display:inline;fill:#000000;fill-opacity:1;stroke:none;stroke-width:2.01884;stroke-opacity:1"
       id="rect1165-5-8-3-3"
       width="146.4164"
       height="28.44903"
       x="420.15775"
       y="396.27399"
       inkscape:export-xdpi="300"
       inkscape:export-ydpi="300" />
    <rect
       style="display:inline;fill:#000000;fill-opacity:1;stroke:none;stroke-width:2.06578;stroke-opacity:1"
       id="rect1167-0-9-7-6"
       width="108.58125"
       height="97.972206"
       x="440.2149"
       y="294.23752"
       ry="0"
       inkscape:export-xdpi="300"
       inkscape:export-ydpi="300" />
    <ellipse
       style="display:inline;fill:#000000;fill-opacity:1;stroke:none;stroke-width:1.99907;stroke-opacity:1"
       id="path1169-4-9-9-6"
       cx="494.36948"
       cy="293.95975"
       inkscape:export-xdpi="300"
       inkscape:export-ydpi="300"
       rx="54.154003"
       ry="54.865986" />
    <rect
       style="display:inline;fill:#f69300;fill-opacity:1;stroke:none;stroke-width:2.01884;stroke-opacity:1"
       id="rect1186-3-4-1-0"
       width="58.165394"
       height="71.122566"
       x="462.27744"
       y="310.92703"
       inkscape:export-xdpi="300"
       inkscape:export-ydpi="300" />
    <rect
       style="display:inline;fill:#000000;fill-opacity:1;stroke:none;stroke-width:2.01884;stroke-opacity:1"
       id="rect1188-5-6-3-2"
       width="32.091244"
       height="38.609398"
       x="482.3342"
       y="343.44028"
       inkscape:export-xdpi="300"
       inkscape:export-ydpi="300" />
    <rect
       style="display:inline;fill:#000000;fill-opacity:1;stroke:none;stroke-width:1.37441;stroke-opacity:1"
       id="rect1188-6-8-1-3-1"
       width="9.0410671"
       height="63.516491"
       x="176.63597"
       y="521.56293"
       transform="matrix(0.79280153,-0.60947988,0.59945919,0.80040532,0,0)"
       inkscape:export-xdpi="300"
       inkscape:export-ydpi="300" />
    <rect
       style="display:inline;fill:#000000;fill-opacity:1;stroke:none;stroke-width:1.91732;stroke-opacity:1"
       id="rect1210-2-0-5-41"
       width="14.068481"
       height="102.8301"
       x="464.75314"
       y="429.5675"
       inkscape:export-xdpi="300"
       inkscape:export-ydpi="300" />
    <rect
       style="display:inline;fill:#000000;fill-opacity:1;stroke:none;stroke-width:2.32373;stroke-opacity:1"
       id="rect1212-1-1-0-02"
       width="14.039836"
       height="86.419533"
       x="502.86133"
       y="429.5675"
       inkscape:export-xdpi="300"
       inkscape:export-ydpi="300" />
    <path
       id="path1014-0-0-6-8-1-9-64"
       style="display:inline;fill:#000000;fill-opacity:1;stroke:none;stroke-width:2.01884;stroke-opacity:1"
       inkscape:transform-center-x="35.703067"
       inkscape:transform-center-y="10.380556"
       d="m 339.11186,68.257368 10.03384,65.392602 -85.9017,50.08008 -50.76377,-41.64741 -64.84648,65.50915 40.96153,51.54868 -49.67808,86.88604 -64.516098,-10.35227 -23.829426,89.58256 60.913574,23.89534 -0.14419,100.41158 -60.981674,23.71414 23.573265,89.65091 64.544019,-10.16575 49.43019,87.0314 -41.10694,51.43088 64.65904,65.69905 50.87973,-41.50007 85.75875,50.33153 -10.21822,65.3643 88.42039,24.14209 23.58521,-61.71442 99.10828,0.14604 23.40668,61.78346 88.48755,-23.88291 -10.03383,-65.3929 85.90202,-50.08009 50.76346,41.64742 64.8465,-65.50916 -40.96153,-51.54865 49.67837,-86.88596 64.5161,10.35226 23.83004,-89.58256 -60.91359,-23.89563 0.14418,-100.4113 60.9817,-23.71442 -23.57297,-89.65091 -64.54431,10.16575 -49.4302,-87.03117 41.10696,-51.43087 -64.65906,-65.69876 -50.87973,41.49978 -85.75845,-50.33122 10.21791,-65.364313 -88.42006,-24.142409 -23.58554,61.714132 -96.17977,2.88154 -20.4211,-57.506648 -94.40257,16.580017 z M 499.5402,192.56211 h 0.45986 c 167.54932,0 303.37453,137.61107 303.37515,307.3632 -6.2e-4,169.75218 -135.82583,307.36344 -303.37515,307.36344 -167.549,0 -303.37451,-137.61126 -303.37482,-307.36344 3.1e-4,-169.57032 135.54541,-307.10616 302.91496,-307.3632 z"
       sodipodi:nodetypes="ccccccccccccccccccccccccccccccccccccccccccccccccccccccsc"
       inkscape:export-xdpi="300"
       inkscape:export-ydpi="300" />
  </g>
  <g
     inkscape:groupmode="layer"
     id="layer1"
     inkscape:label="ligne_orange"
     style="display:inline" />
</svg>
